<svg width="237" height="100" xmlns="http://www.w3.org/2000/svg" xmlns:xlink="http://www.w3.org/1999/xlink" xml:space="preserve" overflow="hidden"><g transform="translate(-229 -178)"><g><g><g><g><g><path d="M84.8611 85.787C84.6349 86.2872 84.2958 86.6599 83.8436 86.9047 83.3914 87.1497 82.8296 87.2739 82.1614 87.2739L80.7192 87.2739 80.7192 80.5429 82.1958 80.5429C82.857 80.5429 83.4085 80.6637 83.8538 80.9085 84.2992 81.1501 84.6349 81.5193 84.8611 82.016 85.0871 82.5128 85.2002 83.1407 85.2002 83.8998 85.2002 84.6588 85.0871 85.2902 84.8611 85.787ZM84.8611 79.4975C84.1485 79.0973 83.2954 78.8971 82.3054 78.8971L78.8317 78.8971 78.8317 88.9127 82.2472 88.9127C83.2578 88.9127 84.1245 88.7126 84.8474 88.3124 85.5702 87.9122 86.1251 87.3361 86.5122 86.5874 86.896 85.8387 87.0913 84.9417 87.0913 83.8963 87.0913 82.8509 86.8994 81.9643 86.5122 81.2156 86.1251 80.4704 85.5771 79.8977 84.8645 79.4975L84.8611 79.4975Z" fill="#EDF1F3" fill-rule="nonzero" fill-opacity="1" transform="matrix(1.01185 0 0 1 230 179)"/><path d="M89.8923 84.4376C89.9095 84.1513 89.9746 83.8822 90.1048 83.6407 90.2486 83.3716 90.4541 83.1543 90.7179 82.9887 90.9818 82.8231 91.2832 82.7402 91.6327 82.7402 91.9581 82.7402 92.2458 82.8127 92.4925 82.961 92.7392 83.106 92.931 83.3095 93.0716 83.5647 93.212 83.8201 93.2805 84.1134 93.2805 84.4376L89.8992 84.4376 89.8923 84.4376ZM94.0238 82.2296C93.7087 81.9191 93.3421 81.6879 92.9276 81.5361 92.5132 81.3844 92.0712 81.3084 91.6018 81.3084 90.8823 81.3084 90.2554 81.4706 89.7245 81.7983 89.1901 82.126 88.779 82.5814 88.4844 83.1645 88.1897 83.7476 88.0424 84.4274 88.0424 85.2001 88.0424 85.9729 88.1897 86.6733 88.4844 87.2529 88.779 87.8325 89.197 88.2776 89.7417 88.5949 90.2863 88.9089 90.9339 89.0676 91.6909 89.0676 92.2836 89.0676 92.8076 88.9745 93.2634 88.7951 93.7189 88.6122 94.0925 88.357 94.3869 88.0258 94.6782 87.6979 94.8769 87.3116 94.9831 86.8665L93.2598 86.694C93.1812 86.901 93.0716 87.0735 92.9243 87.2114 92.7769 87.3529 92.6022 87.4564 92.4001 87.5289 92.1945 87.5979 91.9718 87.6324 91.7252 87.6324 91.3518 87.6324 91.0297 87.5531 90.7523 87.3943 90.4781 87.2356 90.2623 87.0046 90.1116 86.7077 89.9643 86.4179 89.889 86.0696 89.8855 85.6624L95.0482 85.6624 95.0482 85.1105C95.0482 84.4584 94.9591 83.8926 94.7776 83.4164 94.596 82.9368 94.3493 82.5435 94.0307 82.2331L94.0238 82.2296Z" fill="#EDF1F3" fill-rule="nonzero" fill-opacity="1" transform="matrix(1.01185 0 0 1 230 179)"/><path d="M100.43 84.6101 99.1384 84.3376C98.7684 84.2514 98.5047 84.1445 98.3505 84.0132 98.1929 83.8822 98.1142 83.7131 98.1142 83.5062 98.1142 83.2577 98.234 83.0576 98.4704 82.9058 98.7069 82.7539 99.0049 82.6747 99.3577 82.6747 99.6215 82.6747 99.8442 82.7195 100.026 82.8058 100.207 82.892 100.355 83.0058 100.468 83.1439 100.581 83.2853 100.656 83.4372 100.694 83.5993L102.383 83.4441C102.273 82.7885 101.961 82.271 101.444 81.8846 100.93 81.5017 100.224 81.3084 99.3302 81.3084 98.7205 81.3084 98.186 81.4017 97.7236 81.5879 97.2611 81.7742 96.9049 82.0398 96.6478 82.3848 96.3909 82.7299 96.2642 83.137 96.2676 83.6062 96.2676 84.1582 96.4356 84.6136 96.7816 84.9724 97.1276 85.3313 97.662 85.5832 98.378 85.7315L99.6558 86.0005C99.9949 86.073 100.245 86.1765 100.406 86.3111 100.567 86.4456 100.649 86.6146 100.653 86.8217 100.653 87.07 100.526 87.2735 100.283 87.4391 100.039 87.6014 99.714 87.6841 99.3131 87.6841 98.9124 87.6841 98.6006 87.6014 98.3505 87.4289 98.1004 87.2598 97.9394 87.0114 97.8709 86.6871L96.0587 86.8354C96.1649 87.5358 96.5005 88.0843 97.0658 88.4776 97.6311 88.871 98.3813 89.0711 99.3166 89.0711 99.9435 89.0711 100.502 88.9676 100.985 88.7641 101.468 88.5605 101.848 88.2776 102.122 87.9118 102.396 87.5496 102.537 87.1252 102.54 86.6456 102.54 86.1075 102.362 85.6728 102.013 85.3415 101.663 85.0103 101.136 84.7655 100.423 84.6136L100.43 84.6101Z" fill="#EDF1F3" fill-rule="nonzero" fill-opacity="1" transform="matrix(1.01185 0 0 1 230 179)"/><path d="M103.931 88.9186 105.784 88.9186 105.784 81.4043 103.931 81.4043 103.931 88.9186Z" fill="#EDF1F3" fill-rule="nonzero" fill-opacity="1" transform="matrix(1.01185 0 0 1 230 179)"/><path d="M104.868 78.3926C104.58 78.3926 104.333 78.489 104.128 78.6823 103.922 78.8755 103.819 79.1067 103.819 79.3826 103.819 79.6586 103.922 79.8863 104.128 80.0796 104.333 80.2727 104.58 80.3694 104.868 80.3694 105.155 80.3694 105.402 80.2727 105.607 80.0796 105.813 79.8863 105.916 79.6517 105.916 79.3826 105.916 79.1136 105.813 78.879 105.607 78.6857 105.402 78.4926 105.155 78.3959 104.868 78.3959L104.868 78.3926Z" fill="#EDF1F3" fill-rule="nonzero" fill-opacity="1" transform="matrix(1.01185 0 0 1 230 179)"/><path d="M112.301 86.3305C112.167 86.6651 111.975 86.9203 111.722 87.0999 111.468 87.2792 111.16 87.3655 110.8 87.3655 110.441 87.3655 110.115 87.2724 109.862 87.0895 109.608 86.9066 109.416 86.6445 109.286 86.3097 109.156 85.9751 109.091 85.5818 109.091 85.1298 109.091 84.6779 109.156 84.2879 109.283 83.9396 109.409 83.5911 109.601 83.3186 109.855 83.1184 110.108 82.9184 110.423 82.8217 110.8 82.8217 111.177 82.8217 111.475 82.9184 111.729 83.1081 111.982 83.2978 112.174 83.5669 112.304 83.9119 112.434 84.2569 112.499 84.6641 112.499 85.1298 112.499 85.5956 112.434 85.9958 112.301 86.3305ZM112.489 82.6492 112.4 82.6492C112.308 82.463 112.181 82.2663 112.01 82.0557 111.838 81.8488 111.616 81.6695 111.331 81.5211 111.05 81.3762 110.691 81.3003 110.259 81.3003 109.697 81.3003 109.18 81.4451 108.717 81.7384 108.251 82.0317 107.885 82.4594 107.611 83.0288 107.337 83.5979 107.2 84.2983 107.2 85.1333 107.2 85.9682 107.337 86.6374 107.607 87.1792 107.878 87.7209 108.248 88.128 108.711 88.3971 109.173 88.6661 109.69 88.8007 110.259 88.8007 110.677 88.8007 111.026 88.7386 111.311 88.6109 111.595 88.4833 111.825 88.3246 111.999 88.1384 112.177 87.9486 112.308 87.7588 112.4 87.5655L112.489 87.5655 112.489 88.9731C112.489 89.5183 112.332 89.9081 112.013 90.1427 111.694 90.3808 111.297 90.4981 110.814 90.4981 110.478 90.4981 110.197 90.4533 109.971 90.3602 109.745 90.267 109.567 90.1497 109.433 90.0116 109.3 89.8702 109.197 89.7287 109.129 89.5804L107.45 89.9289C107.549 90.2912 107.738 90.6189 108.015 90.9156 108.293 91.2122 108.663 91.447 109.122 91.6228 109.584 91.7988 110.132 91.8851 110.776 91.8851 111.458 91.8851 112.068 91.778 112.602 91.5676 113.137 91.3572 113.558 91.0397 113.863 90.6154 114.168 90.191 114.322 89.6598 114.322 89.0146L114.322 81.3934 112.489 81.3934 112.489 82.6388 112.489 82.6492Z" fill="#EDF1F3" fill-rule="nonzero" fill-opacity="1" transform="matrix(1.01185 0 0 1 230 179)"/><path d="M121.533 81.6431C121.149 81.4188 120.697 81.3084 120.18 81.3084 119.625 81.3084 119.159 81.4327 118.779 81.6846 118.398 81.9364 118.121 82.2745 117.949 82.6954L117.86 82.6954 117.86 81.405 116.093 81.405 116.093 88.9193 117.943 88.9193 117.943 84.5378C117.943 84.1857 118.011 83.8856 118.141 83.6407 118.271 83.3958 118.45 83.206 118.679 83.0749 118.909 82.9437 119.173 82.8783 119.471 82.8783 119.912 82.8783 120.262 83.0162 120.512 83.2922 120.762 83.5682 120.885 83.9512 120.885 84.4376L120.885 88.9193 122.739 88.9193 122.739 84.1341C122.739 83.5406 122.632 83.0335 122.42 82.6091 122.208 82.1881 121.91 81.8639 121.526 81.6396L121.533 81.6431Z" fill="#EDF1F3" fill-rule="nonzero" fill-opacity="1" transform="matrix(1.01185 0 0 1 230 179)"/><path d="M125.059 86.8282C124.758 86.8282 124.498 86.9351 124.282 87.1525 124.066 87.3663 123.96 87.6252 123.963 87.9253 123.96 88.2323 124.066 88.4911 124.282 88.7085 124.498 88.9258 124.758 89.0327 125.059 89.0327 125.258 89.0327 125.44 88.9846 125.604 88.8844 125.768 88.7844 125.902 88.6533 126.001 88.4842 126.101 88.3186 126.152 88.1323 126.156 87.9253 126.156 87.6252 126.043 87.3663 125.823 87.1525 125.604 86.9386 125.351 86.8282 125.059 86.8282Z" fill="#EDF1F3" fill-rule="nonzero" fill-opacity="1" transform="matrix(1.01185 0 0 1 230 179)"/><path d="M133.221 84.6957 137.534 84.6957 137.534 83.1053 133.221 83.1053 133.221 80.4902 137.87 80.4902 137.87 78.8996 131.334 78.8996 131.334 88.9186 137.904 88.9186 137.904 87.3281 133.221 87.3281 133.221 84.6957Z" fill="#EDF1F3" fill-rule="nonzero" fill-opacity="1" transform="matrix(1.01185 0 0 1 230 179)"/><path d="M144.983 81.6431C144.6 81.4188 144.148 81.3084 143.63 81.3084 143.075 81.3084 142.609 81.4327 142.229 81.6846 141.849 81.9364 141.571 82.2745 141.4 82.6954L141.311 82.6954 141.311 81.405 139.543 81.405 139.543 88.9193 141.393 88.9193 141.393 84.5378C141.393 84.1857 141.462 83.8856 141.592 83.6407 141.722 83.3958 141.9 83.206 142.13 83.0749 142.359 82.9437 142.623 82.8783 142.921 82.8783 143.363 82.8783 143.712 83.0162 143.962 83.2922 144.213 83.5682 144.336 83.9512 144.332 84.4376L144.332 88.9193 146.189 88.9193 146.189 84.1341C146.189 83.5406 146.083 83.0335 145.871 82.6091 145.658 82.1881 145.36 81.8639 144.977 81.6396L144.983 81.6431Z" fill="#EDF1F3" fill-rule="nonzero" fill-opacity="1" transform="matrix(1.01185 0 0 1 230 179)"/><path d="M152.715 86.3305C152.581 86.6651 152.389 86.9203 152.135 87.0999 151.882 87.2792 151.574 87.3655 151.214 87.3655 150.854 87.3655 150.529 87.2724 150.275 87.0895 150.022 86.9066 149.83 86.6445 149.7 86.3097 149.57 85.9751 149.505 85.5818 149.505 85.1298 149.505 84.6779 149.57 84.2879 149.696 83.9396 149.823 83.5911 150.015 83.3186 150.269 83.1184 150.522 82.9184 150.837 82.8217 151.214 82.8217 151.591 82.8217 151.889 82.9184 152.142 83.1081 152.396 83.2978 152.588 83.5669 152.718 83.9119 152.848 84.2569 152.913 84.6641 152.913 85.1298 152.913 85.5956 152.848 85.9958 152.715 86.3305ZM152.903 82.6492 152.814 82.6492C152.721 82.463 152.595 82.2663 152.423 82.0557 152.252 81.8488 152.026 81.6695 151.745 81.5211 151.464 81.3762 151.104 81.3003 150.673 81.3003 150.111 81.3003 149.594 81.4451 149.131 81.7384 148.665 82.0317 148.299 82.4594 148.025 83.0288 147.75 83.5979 147.614 84.2983 147.614 85.1333 147.614 85.9682 147.75 86.6374 148.021 87.1792 148.292 87.7209 148.662 88.128 149.124 88.3971 149.587 88.6661 150.104 88.8007 150.673 88.8007 151.091 88.8007 151.44 88.7386 151.724 88.6109 152.009 88.4833 152.238 88.3246 152.413 88.1384 152.591 87.9486 152.721 87.7588 152.814 87.5655L152.903 87.5655 152.903 88.9731C152.903 89.5183 152.745 89.9081 152.427 90.1427 152.108 90.3808 151.711 90.4981 151.228 90.4981 150.892 90.4981 150.611 90.4533 150.385 90.3602 150.159 90.267 149.981 90.1497 149.847 90.0116 149.714 89.8702 149.611 89.7287 149.542 89.5804L147.864 89.9289C147.963 90.2912 148.151 90.6189 148.429 90.9156 148.706 91.2122 149.076 91.447 149.535 91.6228 149.998 91.7988 150.546 91.8851 151.19 91.8851 151.872 91.8851 152.481 91.778 153.016 91.5676 153.55 91.3572 153.972 91.0397 154.277 90.6154 154.582 90.191 154.736 89.6598 154.736 89.0146L154.736 81.3934 152.903 81.3934 152.903 82.6388 152.903 82.6492Z" fill="#EDF1F3" fill-rule="nonzero" fill-opacity="1" transform="matrix(1.01185 0 0 1 230 179)"/><path d="M156.518 88.9186 158.368 88.9186 158.368 81.4043 156.518 81.4043 156.518 88.9186Z" fill="#EDF1F3" fill-rule="nonzero" fill-opacity="1" transform="matrix(1.01185 0 0 1 230 179)"/><path d="M157.448 78.3926C157.16 78.3926 156.914 78.489 156.708 78.6823 156.503 78.8755 156.4 79.1067 156.4 79.3826 156.4 79.6586 156.503 79.8863 156.708 80.0796 156.914 80.2727 157.16 80.3694 157.448 80.3694 157.736 80.3694 157.983 80.2727 158.188 80.0796 158.394 79.8863 158.496 79.6517 158.496 79.3826 158.496 79.1136 158.394 78.879 158.188 78.6857 157.983 78.4926 157.736 78.3959 157.448 78.3959L157.448 78.3926Z" fill="#EDF1F3" fill-rule="nonzero" fill-opacity="1" transform="matrix(1.01185 0 0 1 230 179)"/><path d="M165.573 81.6431C165.189 81.4188 164.737 81.3084 164.22 81.3084 163.665 81.3084 163.199 81.4327 162.818 81.6846 162.438 81.9364 162.161 82.2745 161.989 82.6954L161.904 82.6954 161.904 81.405 160.136 81.405 160.136 88.9193 161.986 88.9193 161.986 84.5378C161.989 84.1857 162.054 83.8856 162.185 83.6407 162.315 83.3958 162.493 83.206 162.722 83.0749 162.952 82.9437 163.216 82.8783 163.514 82.8783 163.956 82.8783 164.305 83.0162 164.555 83.2922 164.805 83.5682 164.929 83.9512 164.925 84.4376L164.925 88.9193 166.782 88.9193 166.782 84.1341C166.782 83.5406 166.676 83.0335 166.463 82.6091 166.251 82.1881 165.953 81.8639 165.569 81.6396L165.573 81.6431Z" fill="#EDF1F3" fill-rule="nonzero" fill-opacity="1" transform="matrix(1.01185 0 0 1 230 179)"/><path d="M170.015 84.4376C170.032 84.1513 170.097 83.8822 170.228 83.6407 170.376 83.3716 170.577 83.1543 170.84 82.9887 171.104 82.8231 171.406 82.7402 171.755 82.7402 172.08 82.7402 172.369 82.8127 172.616 82.961 172.862 83.106 173.054 83.3095 173.195 83.5647 173.336 83.8201 173.403 84.1134 173.403 84.4376L170.022 84.4376 170.015 84.4376ZM174.146 82.2296C173.832 81.9191 173.465 81.6879 173.05 81.5361 172.636 81.3844 172.195 81.3084 171.725 81.3084 171.005 81.3084 170.379 81.4706 169.847 81.7983 169.317 82.126 168.902 82.5814 168.607 83.1645 168.313 83.7476 168.166 84.4274 168.166 85.2001 168.166 85.9729 168.313 86.6733 168.607 87.2529 168.902 87.8325 169.32 88.2776 169.864 88.5949 170.409 88.9089 171.057 89.0676 171.814 89.0676 172.406 89.0676 172.931 88.9745 173.386 88.7951 173.842 88.6122 174.215 88.357 174.51 88.0258 174.804 87.6979 175 87.3116 175.106 86.8665L173.383 86.694C173.304 86.901 173.195 87.0735 173.047 87.2114 172.899 87.3529 172.725 87.4564 172.523 87.5289 172.317 87.5979 172.094 87.6324 171.847 87.6324 171.475 87.6324 171.153 87.5531 170.876 87.3943 170.6 87.2356 170.386 87.0046 170.235 86.7077 170.087 86.4179 170.012 86.0696 170.008 85.6624L175.171 85.6624 175.171 85.1105C175.171 84.4584 175.079 83.8926 174.901 83.4164 174.718 82.9368 174.472 82.5435 174.154 82.2331L174.146 82.2296Z" fill="#EDF1F3" fill-rule="nonzero" fill-opacity="1" transform="matrix(1.01185 0 0 1 230 179)"/><path d="M178.101 84.4376C178.118 84.1513 178.183 83.8822 178.312 83.6407 178.46 83.3716 178.661 83.1543 178.927 82.9887 179.19 82.8231 179.49 82.7402 179.841 82.7402 180.17 82.7402 180.454 82.8127 180.7 82.961 180.947 83.106 181.14 83.3095 181.279 83.5647 181.42 83.8201 181.489 84.1134 181.489 84.4376L178.108 84.4376 178.101 84.4376ZM182.232 82.2296C181.917 81.9191 181.551 81.6879 181.135 81.5361 180.72 81.3844 180.279 81.3084 179.809 81.3084 179.091 81.3084 178.463 81.4706 177.933 81.7983 177.401 82.126 176.987 82.5814 176.692 83.1645 176.398 83.7476 176.25 84.4274 176.25 85.2001 176.25 85.9729 176.398 86.6733 176.692 87.2529 176.987 87.8325 177.405 88.2776 177.95 88.5949 178.494 88.9089 179.141 89.0676 179.895 89.0676 180.489 89.0676 181.012 88.9745 181.469 88.7951 181.923 88.6122 182.298 88.357 182.591 88.0258 182.887 87.6979 183.081 87.3116 183.187 86.8665L181.464 86.694C181.386 86.901 181.276 87.0735 181.128 87.2114 180.985 87.3529 180.806 87.4564 180.605 87.5289 180.4 87.5979 180.177 87.6324 179.93 87.6324 179.556 87.6324 179.234 87.5531 178.96 87.3943 178.687 87.2356 178.47 87.0046 178.319 86.7077 178.171 86.4179 178.098 86.0696 178.093 85.6624L183.256 85.6624 183.256 85.1105C183.256 84.4584 183.163 83.8926 182.986 83.4164 182.804 82.9368 182.554 82.5435 182.239 82.2331L182.232 82.2296Z" fill="#EDF1F3" fill-rule="nonzero" fill-opacity="1" transform="matrix(1.01185 0 0 1 230 179)"/><path d="M188.409 81.297C187.984 81.297 187.607 81.4142 187.278 81.6523 186.949 81.8904 186.717 82.2319 186.583 82.6736L186.504 82.6736 186.504 81.4005 184.709 81.4005 184.709 88.9148 186.56 88.9148 186.56 84.547C186.56 84.2295 186.63 83.95 186.774 83.7121 186.919 83.4704 187.113 83.2808 187.363 83.1462 187.613 83.0081 187.895 82.9427 188.214 82.9427 188.36 82.9427 188.514 82.9529 188.676 82.9771 188.84 83.0013 188.961 83.0254 189.043 83.0496L189.043 81.359C188.961 81.3384 188.853 81.3246 188.734 81.3142 188.615 81.3038 188.504 81.3005 188.405 81.3005L188.409 81.297Z" fill="#EDF1F3" fill-rule="nonzero" fill-opacity="1" transform="matrix(1.01185 0 0 1 230 179)"/><path d="M190.389 88.9186 192.235 88.9186 192.235 81.4043 190.389 81.4043 190.389 88.9186Z" fill="#EDF1F3" fill-rule="nonzero" fill-opacity="1" transform="matrix(1.01185 0 0 1 230 179)"/><path d="M191.32 78.3926C191.033 78.3926 190.786 78.489 190.58 78.6823 190.375 78.8755 190.273 79.1067 190.273 79.3826 190.273 79.6586 190.375 79.8863 190.58 80.0796 190.786 80.2727 191.033 80.3694 191.32 80.3694 191.609 80.3694 191.855 80.2727 192.06 80.0796 192.266 79.8863 192.369 79.6517 192.369 79.3826 192.369 79.1136 192.266 78.879 192.06 78.6857 191.855 78.4926 191.609 78.3959 191.32 78.3959L191.32 78.3926Z" fill="#EDF1F3" fill-rule="nonzero" fill-opacity="1" transform="matrix(1.01185 0 0 1 230 179)"/><path d="M199.445 81.6431C199.062 81.4188 198.609 81.3084 198.092 81.3084 197.537 81.3084 197.07 81.4327 196.691 81.6846 196.31 81.9364 196.033 82.2745 195.862 82.6954L195.773 82.6954 195.773 81.405 194.005 81.405 194.005 88.9193 195.856 88.9193 195.856 84.5378C195.859 84.1857 195.923 83.8856 196.054 83.6407 196.184 83.3958 196.362 83.206 196.592 83.0749 196.82 82.9437 197.086 82.8783 197.383 82.8783 197.826 82.8783 198.174 83.0162 198.425 83.2922 198.675 83.5682 198.797 83.9512 198.794 84.4376L198.794 88.9193 200.651 88.9193 200.651 84.1341C200.651 83.5406 200.545 83.0335 200.332 82.6091 200.119 82.1881 199.822 81.8639 199.438 81.6396L199.445 81.6431Z" fill="#EDF1F3" fill-rule="nonzero" fill-opacity="1" transform="matrix(1.01185 0 0 1 230 179)"/><path d="M206.897 86.3305C206.762 86.6651 206.571 86.9203 206.318 87.0999 206.064 87.2792 205.759 87.3655 205.395 87.3655 205.032 87.3655 204.71 87.2724 204.457 87.0895 204.203 86.9066 204.016 86.6445 203.881 86.3097 203.752 85.9751 203.687 85.5818 203.687 85.1298 203.687 84.6779 203.75 84.2879 203.878 83.9396 204.005 83.5911 204.197 83.3186 204.45 83.1184 204.703 82.9184 205.019 82.8217 205.395 82.8217 205.772 82.8217 206.071 82.9184 206.324 83.1081 206.578 83.2978 206.769 83.5669 206.9 83.9119 207.029 84.2569 207.095 84.6641 207.095 85.1298 207.095 85.5956 207.029 85.9958 206.897 86.3305ZM207.085 82.6492 206.996 82.6492C206.907 82.463 206.776 82.2663 206.605 82.0557 206.433 81.8488 206.207 81.6695 205.927 81.5211 205.646 81.3762 205.286 81.3003 204.854 81.3003 204.292 81.3003 203.779 81.4451 203.312 81.7384 202.848 82.0317 202.48 82.4594 202.207 83.0288 201.931 83.5979 201.796 84.2983 201.796 85.1333 201.796 85.9682 201.931 86.6374 202.203 87.1792 202.473 87.7209 202.843 88.128 203.306 88.3971 203.769 88.6661 204.286 88.8007 204.854 88.8007 205.272 88.8007 205.621 88.7386 205.907 88.6109 206.19 88.4833 206.42 88.3246 206.595 88.1384 206.769 87.9486 206.907 87.7588 206.996 87.5655L207.085 87.5655 207.085 88.9731C207.085 89.5183 206.927 89.9081 206.608 90.1427 206.289 90.3808 205.893 90.4981 205.41 90.4981 205.074 90.4981 204.792 90.4533 204.566 90.3602 204.341 90.267 204.161 90.1497 204.029 90.0116 203.895 89.8702 203.792 89.7287 203.724 89.5804L202.046 89.9289C202.145 90.2912 202.333 90.6189 202.611 90.9156 202.888 91.2122 203.257 91.447 203.717 91.6228 204.18 91.7988 204.73 91.8851 205.371 91.8851 206.053 91.8851 206.663 91.778 207.197 91.5676 207.732 91.3572 208.153 91.0397 208.459 90.6154 208.762 90.191 208.917 89.6598 208.917 89.0146L208.917 81.3934 207.088 81.3934 207.088 82.6388 207.085 82.6492Z" fill="#EDF1F3" fill-rule="nonzero" fill-opacity="1" transform="matrix(1.01185 0 0 1 230 179)"/><path d="M211.243 86.8282C210.94 86.8282 210.68 86.9351 210.464 87.1525 210.249 87.3663 210.142 87.6252 210.145 87.9253 210.142 88.2323 210.249 88.4911 210.464 88.7085 210.68 88.9258 210.94 89.0327 211.243 89.0327 211.441 89.0327 211.622 88.9846 211.786 88.8844 211.951 88.7844 212.085 88.6533 212.184 88.4842 212.283 88.3186 212.335 88.1323 212.338 87.9253 212.338 87.6252 212.226 87.3663 212.006 87.1525 211.786 86.9386 211.533 86.8282 211.243 86.8282Z" fill="#EDF1F3" fill-rule="nonzero" fill-opacity="1" transform="matrix(1.01185 0 0 1 230 179)"/><path d="M220.22 84.9856 221.525 81.025 221.604 81.025 222.913 84.9856 220.22 84.9856ZM220.381 78.8996 216.901 88.9153 218.924 88.9153 219.723 86.5002 223.416 86.5002 224.215 88.9153 226.235 88.9153 222.752 78.8996 220.381 78.8996Z" fill="#EDF1F3" fill-rule="nonzero" fill-opacity="1" transform="matrix(1.01185 0 0 1 230 179)"/><path d="M227.517 88.9186 229.405 88.9186 229.405 78.8996 227.517 78.8996 227.517 88.9186Z" fill="#EDF1F3" fill-rule="nonzero" fill-opacity="1" transform="matrix(1.01185 0 0 1 230 179)"/><path d="M232.665 87.1525C232.447 86.9386 232.194 86.8282 231.902 86.8282 231.611 86.8282 231.34 86.9351 231.125 87.1525 230.908 87.3663 230.803 87.6252 230.803 87.9253 230.803 88.2323 230.905 88.4911 231.125 88.7085 231.34 88.9258 231.601 89.0327 231.902 89.0327 232.101 89.0327 232.283 88.9846 232.447 88.8844 232.611 88.7844 232.744 88.6533 232.845 88.4842 232.944 88.3186 232.994 88.1323 232.999 87.9253 232.994 87.6252 232.885 87.3663 232.665 87.1525Z" fill="#EDF1F3" fill-rule="nonzero" fill-opacity="1" transform="matrix(1.01185 0 0 1 230 179)"/><path d="M8.81459 65.9691 0 65.9691 15.1558 22.374 25.4709 22.374 40.6266 65.9724 31.8325 65.9724 20.4829 31.6099 20.1436 31.6099 8.81459 65.9691ZM8.81459 48.8533 31.7503 48.8533 31.7503 55.4533 8.81459 55.4533 8.81459 48.8533Z" fill="#EDF1F3" fill-rule="nonzero" fill-opacity="1" transform="matrix(1.01185 0 0 1 230 179)"/><path d="M54.4282 22.374 54.4282 65.9724 46.2063 65.9724 46.2063 22.374 54.4282 22.374Z" fill="#EDF1F3" fill-rule="nonzero" fill-opacity="1" transform="matrix(1.01185 0 0 1 230 179)"/><path d="M79.8005 0 29.7117 98.9997 52.9833 98.9997 103.072 0 79.8005 0Z" fill="#FF5578" fill-rule="nonzero" fill-opacity="1" transform="matrix(1.01185 0 0 1 230 179)"/><path d="M124.798 53.7897C125.045 54.9905 125.456 56.0738 126.042 57.0329 126.631 57.992 127.409 58.7545 128.382 59.3237 129.355 59.8963 130.568 60.1792 132.027 60.1792 133.486 60.1792 134.709 59.8963 135.703 59.3237 136.693 58.7545 137.484 57.9885 138.07 57.0329 138.659 56.0738 139.074 54.9905 139.314 53.7897 139.557 52.5891 139.68 51.354 139.68 50.0878 139.68 48.8218 139.557 47.5831 139.314 46.3583 139.07 45.1336 138.656 44.0572 138.07 43.1153 137.484 42.1804 136.693 41.4144 135.703 40.8244 134.709 40.2344 133.486 39.9378 132.027 39.9378 130.568 39.9378 129.355 40.2344 128.382 40.8244 127.409 41.4179 126.631 42.1804 126.042 43.1153 125.456 44.0572 125.042 45.1336 124.798 46.3583 124.555 47.5831 124.435 48.8251 124.435 50.0878 124.435 51.3506 124.555 52.5858 124.798 53.7897ZM116.964 43.2085C117.731 41.1488 118.824 39.3995 120.242 37.9506 121.657 36.5015 123.36 35.3836 125.347 34.5867 127.327 33.7932 129.553 33.393 132.027 33.393 134.5 33.393 136.734 33.7897 138.738 34.5867 140.742 35.3836 142.452 36.5015 143.866 37.9506 145.285 39.3995 146.378 41.1521 147.145 43.2085 147.912 45.2682 148.299 47.5625 148.299 50.0913 148.299 52.6202 147.916 54.9042 147.145 56.9431 146.378 58.9822 145.285 60.7244 143.866 62.1735 142.452 63.6224 140.742 64.7334 138.738 65.5063 136.734 66.279 134.494 66.6689 132.027 66.6689 129.56 66.6689 127.33 66.279 125.347 65.5063 123.363 64.7334 121.66 63.6224 120.242 62.1735 118.824 60.7279 117.731 58.9822 116.964 56.9431 116.196 54.9042 115.809 52.6202 115.809 50.0913 115.809 47.5625 116.196 45.2715 116.964 43.2085Z" fill="#EDF1F3" fill-rule="nonzero" fill-opacity="1" transform="matrix(1.01185 0 0 1 230 179)"/><path d="M183.897 22.1978 183.897 45.6237 194.77 34.249 204.972 34.249 193.129 45.8687 206.308 65.8687 195.862 65.8687 187.241 51.7408 183.897 54.9804 183.897 65.8687 175.274 65.8687 175.274 22.1978 183.897 22.1978Z" fill="#EDF1F3" fill-rule="nonzero" fill-opacity="1" transform="matrix(1.01185 0 0 1 230 179)"/><path d="M212.684 58.0093C213.072 58.682 213.568 59.2305 214.171 59.6584 214.778 60.0861 215.479 60.4036 216.268 60.6071 217.058 60.8107 217.877 60.9142 218.728 60.9142 219.334 60.9142 219.971 60.8452 220.642 60.7003 221.31 60.5588 221.916 60.3346 222.465 60.0276 223.01 59.7205 223.465 59.3134 223.832 58.8028 224.195 58.2956 224.376 57.6539 224.376 56.8777 224.376 55.5734 223.517 54.5972 221.797 53.9416 220.074 53.293 217.676 52.6375 214.6 51.9854 213.345 51.7025 212.118 51.3644 210.924 50.9746 209.731 50.5882 208.665 50.0776 207.737 49.4461 206.806 48.8147 206.056 48.0212 205.49 47.0621 204.922 46.1031 204.64 44.9301 204.64 43.5466 204.64 41.5042 205.034 39.8342 205.823 38.5301 206.613 37.226 207.655 36.1979 208.95 35.4423 210.246 34.6867 211.704 34.1589 213.322 33.8518 214.939 33.5447 216.6 33.393 218.3 33.393 219.998 33.393 221.649 33.5587 223.25 33.8828 224.849 34.2107 226.279 34.7592 227.532 35.5321 228.786 36.3048 229.831 37.3364 230.66 38.6199 231.489 39.9032 231.986 41.5283 232.147 43.4845L223.945 43.4845C223.826 41.8112 223.195 40.683 222.06 40.0896 220.926 39.4997 219.59 39.203 218.053 39.203 217.57 39.203 217.038 39.234 216.473 39.2926 215.907 39.3547 215.39 39.4859 214.926 39.6894 214.463 39.893 214.065 40.1896 213.743 40.5794 213.421 40.9659 213.259 41.4869 213.259 42.1389 213.259 42.9152 213.541 43.5466 214.11 44.0364 214.674 44.5263 215.414 44.9232 216.327 45.2302 217.235 45.5373 218.278 45.8132 219.451 46.0582 220.626 46.3031 221.82 46.5688 223.034 46.8552 224.287 47.1381 225.514 47.4864 226.71 47.8937 227.901 48.3008 228.967 48.8424 229.895 49.5151 230.828 50.188 231.578 51.0228 232.147 52.02 232.712 53.0204 232.996 54.2522 232.996 55.7219 232.996 57.8022 232.581 59.5445 231.749 60.9521 230.92 62.3598 229.838 63.4914 228.497 64.347 227.161 65.2026 225.634 65.8063 223.915 66.1513 222.191 66.4965 220.441 66.6723 218.659 66.6723 216.877 66.6723 215.055 66.4894 213.315 66.1238 211.575 65.7582 210.026 65.144 208.669 64.2884 207.313 63.4327 206.199 62.301 205.329 60.8936 204.458 59.4859 203.987 57.7229 203.905 55.6011L212.105 55.6011C212.105 56.5396 212.298 57.3433 212.681 58.0162L212.684 58.0093Z" fill="#EDF1F3" fill-rule="nonzero" fill-opacity="1" transform="matrix(1.01185 0 0 1 230 179)"/><path d="M168.548 33.3898C161.293 33.3898 158.529 40.1175 158.529 40.1175L158.409 40.1175 158.409 34.2454 150.211 34.2454 150.211 65.8689 158.837 65.8689 158.837 52.6068C158.837 44.8994 160.324 41.4699 166.843 41.4699 168.186 41.4699 169.297 41.777 170.218 42.2772L173.918 34.9666C172.507 34.0488 170.738 33.3865 168.557 33.3865L168.548 33.3898Z" fill="#EDF1F3" fill-rule="nonzero" fill-opacity="1" transform="matrix(1.01185 0 0 1 230 179)"/><path d="M108.566 34.2491 102.793 55.6568 102.673 55.6568 97.3292 34.2491 88.9463 34.2491 83.722 55.7155 83.602 55.7155 77.833 34.2491 77.8296 34.256 77.8296 34.2491 68.7409 34.2491 78.6414 65.8691 78.6381 65.7241 78.686 65.8691 87.6103 65.8691 92.9545 44.6443 93.0778 44.6443 98.6652 65.8691 107.531 65.8691 117.432 34.2491 108.566 34.2491Z" fill="#EDF1F3" fill-rule="nonzero" fill-opacity="1" transform="matrix(1.01185 0 0 1 230 179)"/></g></g></g></g></g></g></svg>